<?xml version="1.0" encoding="UTF-8"?>
<svg version="1.1" xmlns="http://www.w3.org/2000/svg" width="1280" height="257">
<path d="M0 0 C18.19125 -0.0928125 18.19125 -0.0928125 36.75 -0.1875 C40.5562793 -0.21481201 44.36255859 -0.24212402 48.28417969 -0.27026367 C52.99072266 -0.28381348 52.99072266 -0.28381348 55.2053833 -0.28633118 C56.72738286 -0.290889 58.2493727 -0.3013366 59.77130127 -0.31672668 C74.4499759 -0.45753 88.06855215 0.64673788 99.29296875 11.14453125 C106.85756484 19.23272416 109.35890165 27.08521718 109.2109375 38.09375 C108.55353788 47.15125593 105.03462666 54.41988824 98.3125 60.53515625 C96.8897572 61.70823505 95.44645702 62.8562898 94 64 C93.67 64.66 93.34 65.32 93 66 C93.66 66.04125 94.32 66.0825 95 66.125 C102.34582131 68.26753122 108.82863836 74.72711693 113 81 C115.84723998 86.73376353 116.51868911 92.03010287 116.4375 98.375 C116.42920166 99.21135986 116.42090332 100.04771973 116.41235352 100.90942383 C116.15407023 110.35376804 113.61580272 117.28916002 107.0234375 124.1875 C81.2642073 147.26140504 23.7357282 137 0 137 C0 91.79 0 46.58 0 0 Z M30 27 C30 36.24 30 45.48 30 55 C34.0895411 55.04629669 38.17840133 55.08600292 42.26806641 55.10986328 C43.65481676 55.11982603 45.04154665 55.13340118 46.42822266 55.15087891 C62.22170908 55.6659278 62.22170908 55.6659278 76 49 C78.58131325 44.78651618 78.55077816 40.81070302 78 36 C76.25410024 31.7730848 74.07549148 29.98804462 70 28 C65.92752643 26.79209192 61.94815566 26.87398145 57.734375 26.90234375 C56.94097717 26.9037587 56.14757935 26.90517365 55.33013916 26.90663147 C52.80338728 26.91221585 50.27672496 26.92476546 47.75 26.9375 C46.03385545 26.94251702 44.31770951 26.94707957 42.6015625 26.95117188 C38.40097965 26.96132802 34.20058973 26.98090641 30 27 Z M30 80 C30 89.57 30 99.14 30 109 C36.12055431 109.09211537 42.23867835 109.17166833 48.359375 109.21972656 C50.43888525 109.23977159 52.51833963 109.26701513 54.59765625 109.30175781 C57.59649487 109.35058948 60.59458463 109.37304028 63.59375 109.390625 C64.51490601 109.41127014 65.43606201 109.43191528 66.38513184 109.45318604 C73.32540306 109.45556795 78.64144927 107.92518934 83.9375 103.3125 C86.17414558 98.44450668 86.57075071 93.77939928 84.9375 88.6875 C81.40540987 83.78814917 77.75785753 81.95476956 71.91796875 80.8984375 C63.54915389 79.58568223 55.19488556 79.7836014 46.75 79.875 C45.11849512 79.885057 43.48698419 79.89417801 41.85546875 79.90234375 C37.90336952 79.92240517 33.95213121 79.96158836 30 80 Z " fill="#F3BA2E" transform="translate(300,62)"/>
<path d="M0 0 C9.57 0 19.14 0 29 0 C34.55365524 6.78780085 39.98325579 13.52609825 45.1875 20.5625 C50.17837517 27.26601737 55.22786939 33.91566078 60.375 40.5 C70.51251926 53.47881159 80.22717418 66.73687924 90 80 C90.33 53.6 90.66 27.2 91 0 C101.23 0 111.46 0 122 0 C122 45.21 122 90.42 122 137 C113.09 137 104.18 137 95 137 C86.28271076 127.65506594 86.28271076 127.65506594 84.0390625 123.34765625 C81.16684893 118.15285023 77.79346127 113.66420793 74.0625 109.0625 C72.89365044 107.57695418 71.72831088 106.08864026 70.56640625 104.59765625 C69.98262207 103.84887207 69.39883789 103.10008789 68.79736328 102.32861328 C65.65209891 98.25369728 62.57772306 94.12602527 59.5 90 C53.99925258 82.62722171 48.4149578 75.32721572 42.7421875 68.0859375 C42.20722656 67.40273437 41.67226563 66.71953125 41.12109375 66.015625 C40.6614624 65.43071289 40.20183105 64.84580078 39.72827148 64.24316406 C37.11780852 60.854983 34.56630934 57.42174578 32 54 C31.67 81.39 31.34 108.78 31 137 C20.77 137 10.54 137 0 137 C0 91.79 0 46.58 0 0 Z " fill="#F2B92E" transform="translate(528,62)"/>
<path d="M0 0 C29 0 29 0 34.8125 5.1875 C36.02807617 7.05151367 36.02807617 7.05151367 36.79296875 8.79296875 C39.3930708 14.03989638 43.0202561 18.41222123 46.625 23 C48.01477294 24.81928551 49.40145658 26.64093481 50.78515625 28.46484375 C53.54020597 32.08414793 56.29798561 35.70134008 59.05859375 39.31640625 C66.46246503 49.01542363 73.83084219 58.73901851 81.12915039 68.51782227 C81.71043701 69.29569092 82.29172363 70.07355957 82.890625 70.875 C83.64907715 71.89207031 83.64907715 71.89207031 84.42285156 72.9296875 C86.2418651 75.31749475 88.12482886 77.65603607 90 80 C90.33 53.6 90.66 27.2 91 0 C101.23 0 111.46 0 122 0 C122.02254646 17.71492797 122.04097884 35.42984375 122.05181217 53.14478207 C122.05697527 61.36955719 122.06401823 69.59432279 122.07543945 77.8190918 C122.08538586 84.98520446 122.09185332 92.15131023 122.09408849 99.3174296 C122.09539568 103.11416989 122.09848198 106.91089045 122.10573006 110.70762444 C122.1124896 114.27718902 122.1146171 117.84672563 122.11310768 121.41629601 C122.11351636 123.35914846 122.1189119 125.30199784 122.12442017 127.24484253 C122.1230455 128.39054214 122.12167084 129.53624176 122.12025452 130.71665955 C122.12117631 131.71864852 122.1220981 132.72063749 122.12304783 133.75298977 C122 136 122 136 121 137 C112.3829795 138.50989482 100.31772575 140.34204667 92.59228516 135.48681641 C88.36582378 131.41639636 85.40955944 126.51522897 82.47949219 121.46728516 C80.19082204 117.65056891 77.4733366 114.19985277 74.75 110.6875 C73.75788404 109.3638737 72.76824117 108.03838961 71.78125 106.7109375 C68.50475495 102.32806433 65.16348075 97.99620656 61.8203125 93.6640625 C58.2387508 89.01778341 54.68190117 84.35266823 51.125 79.6875 C50.50141602 78.87063721 49.87783203 78.05377441 49.23535156 77.2121582 C43.11060184 69.17518104 37.06349509 61.08466012 31 53 C30.67 80.72 30.34 108.44 30 137 C20.1 137 10.2 137 0 137 C0 91.79 0 46.58 0 0 Z " fill="#F3B92F" transform="translate(858,62)"/>
<path d="M0 0 C33.99 0 67.98 0 103 0 C103 8.91 103 17.82 103 27 C79.24 27 55.48 27 31 27 C31 35.91 31 44.82 31 54 C52.12 54 73.24 54 95 54 C95 62.91 95 71.82 95 81 C73.88 81 52.76 81 31 81 C31 90.24 31 99.48 31 109 C54.76 109 78.52 109 103 109 C103 118.24 103 127.48 103 137 C69.01 137 35.02 137 0 137 C0 91.79 0 46.58 0 0 Z " fill="#F3B92E" transform="translate(1177,62)"/>
<path d="M0 0 C9.57 0 19.14 0 29 0 C35.74356913 13.48713826 35.74356913 13.48713826 38.27734375 19.5859375 C38.56123962 20.26507706 38.8451355 20.94421661 39.13763428 21.64393616 C39.75198302 23.11442349 40.36454024 24.58566039 40.97543335 26.05758667 C42.69831012 30.20762929 44.43595271 34.35149505 46.171875 38.49609375 C46.73686958 39.84632378 46.73686958 39.84632378 47.3132782 41.22383118 C51.88770273 52.14271401 56.53887388 63.0288653 61.18554688 73.91714478 C65.03684073 82.94400602 68.88022568 91.97424067 72.72436523 101.00415039 C73.91396264 103.79793983 75.10439383 106.59137268 76.29492188 109.38476562 C77.90233086 113.15806085 79.50437625 116.9335778 81.10098267 120.7114563 C81.65228432 122.01375587 82.20544337 123.31527093 82.7605896 124.61593628 C83.50034251 126.34990518 84.2328433 128.08696291 84.96484375 129.82421875 C85.3630835 130.76354248 85.76132324 131.70286621 86.17163086 132.6706543 C87 135 87 135 87 138 C76.44 138 65.88 138 55 138 C53.02 133.25625 51.04 128.5125 49 123.625 C48.37351562 122.1292041 47.74703125 120.6334082 47.1015625 119.09228516 C46.61429688 117.91972168 46.12703125 116.7471582 45.625 115.5390625 C45.12226562 114.33459473 44.61953125 113.13012695 44.1015625 111.88916016 C43 109 43 109 43 107 C24.19 107 5.38 107 -14 107 C-14.99 109.97 -15.98 112.94 -17 116 C-17.73121579 117.90599604 -18.48216661 119.80466411 -19.26171875 121.69140625 C-19.61967529 122.56224854 -19.97763184 123.43309082 -20.34643555 124.33032227 C-21.01026245 125.93025024 -21.01026245 125.93025024 -21.6875 127.5625 C-23.110625 131.006875 -24.53375 134.45125 -26 138 C-36.56 138 -47.12 138 -58 138 C-56.00914987 132.02744962 -53.97216535 126.32771361 -51.47265625 120.5859375 C-51.13201141 119.79485596 -50.79136658 119.00377441 -50.44039917 118.1887207 C-49.70370307 116.47886938 -48.96537063 114.76972232 -48.22555542 113.06121826 C-46.61926568 109.3512963 -45.02132301 105.6377976 -43.42292786 101.92446899 C-42.57678251 99.95878949 -41.7302492 97.99327694 -40.88334656 96.02792358 C-36.20101239 85.15795669 -31.56755844 74.26731197 -26.9375 63.375 C-26.10459768 61.41641227 -25.27167129 59.45783478 -24.4387207 57.49926758 C-22.37295052 52.64137338 -20.30788852 47.78317852 -18.24310303 42.92486572 C-16.98332296 39.96076102 -15.7233763 36.99672717 -14.46337891 34.03271484 C-9.64118042 22.68893198 -4.82008469 11.34468119 0 0 Z M14 38 C11.89762567 43.01593701 9.7981061 48.03305583 7.70117188 53.05126953 C6.98808002 54.75667206 6.27422221 56.46175453 5.55957031 58.16650391 C4.52986184 60.62317606 3.50295371 63.08100287 2.4765625 65.5390625 C2.15877838 66.29555084 1.84099426 67.05203918 1.51358032 67.83145142 C1.2134201 68.5517453 0.91325989 69.27203918 0.60400391 70.01416016 C0.21095566 70.95347885 0.21095566 70.95347885 -0.19003296 71.91177368 C-1.22215926 74.57276258 -2.09743994 77.29231982 -3 80 C8.55 80 20.1 80 32 80 C26.40332485 65.96997873 20.79465854 51.94939325 15 38 C14.67 38 14.34 38 14 38 Z " fill="#F3BA2E" transform="translate(739,61)"/>
<path d="M0 0 C2.13035144 1.88070088 4.21273631 3.78885822 6.25 5.76953125 C4.72920927 9.2778104 2.6504327 11.72224771 0.0625 14.51953125 C-3.48632915 18.36504708 -6.87487014 22.28603567 -10.14453125 26.37109375 C-11.75 27.76953125 -11.75 27.76953125 -15.75 27.76953125 C-18.1953125 26.16015625 -18.1953125 26.16015625 -20.875 24.01953125 C-31.39438617 16.06310128 -41.69711518 13.75907463 -54.75 14.76953125 C-64.42209848 17.08268491 -72.46889803 22.05023304 -78.75 29.76953125 C-86.04212526 41.70558891 -87.57006437 54.58638628 -85.1328125 68.22265625 C-81.84180056 79.34802406 -75.41241924 87.44125566 -65.55859375 93.4296875 C-55.77564729 98.09665639 -43.12622335 98.63513045 -32.8125 95.20703125 C-28.18283487 93.22992502 -24.16108532 90.55709923 -20.13671875 87.55078125 C-17.41558032 85.51994799 -14.57516035 83.65297148 -11.75 81.76953125 C-5.48 88.03953125 0.79 94.30953125 7.25 100.76953125 C1.43300898 112.40351329 -12.01712544 119.6217617 -23.87109375 123.89453125 C-43.50492425 129.55865988 -65.53188452 128.11930122 -83.75 118.76953125 C-100.77602905 108.51379357 -111.59757419 94.50931921 -117.5625 75.51953125 C-122.23656931 56.37810457 -119.9356795 35.15102643 -109.671875 18.1875 C-98.67207195 1.15452342 -83.23975736 -9.55967195 -63.3984375 -13.9765625 C-41.46793514 -17.77121983 -17.61534683 -14.2874475 0 0 Z " fill="#F3BA2E" transform="translate(1135.75,74.23046875)"/>
<path d="M0 0 C5.96118297 4.93997261 11.41486302 10.28529862 16.87109375 15.7734375 C18.25458763 17.1590538 18.25458763 17.1590538 19.66603088 18.57266235 C22.09633814 21.00675431 24.52362496 23.44383597 26.95025635 25.8815918 C29.43569364 28.3773311 31.92402932 30.87017708 34.41210938 33.36328125 C39.27755096 38.2393886 44.13980198 43.11866631 49 48 C52.61692773 46.47102424 54.9203522 44.32184367 57.67675781 41.55029297 C58.59741028 40.62948944 59.51806274 39.70868591 60.46661377 38.75997925 C61.4622253 37.75415535 62.45772648 36.7482222 63.453125 35.7421875 C64.47830193 34.71327851 65.50392275 33.68481163 66.52996826 32.6567688 C69.22393164 29.95518419 71.91183368 27.24764659 74.59851074 24.53881836 C77.34328304 21.77355511 80.09375472 19.01397367 82.84375 16.25390625 C88.23475573 10.84147726 93.61936964 5.42274562 99 0 C103.08135573 1.88355536 105.94885227 4.60854512 109.11328125 7.7421875 C109.6870903 8.30696808 110.26089935 8.87174866 110.85209656 9.4536438 C112.05913623 10.64621023 113.26341323 11.84157854 114.46508789 13.03955078 C116.31144566 14.87395249 118.1756365 16.6888764 120.04101562 18.50390625 C121.21208154 19.66551445 122.38204281 20.82823757 123.55078125 21.9921875 C124.39277824 22.80488602 124.39277824 22.80488602 125.25178528 23.63400269 C126.7902832 25.19091797 126.7902832 25.19091797 129 28 C128.70415663 31.38243726 127.31153614 33.06071526 124.95652771 35.40423584 C124.30726318 36.05762436 123.65799866 36.71101288 122.98905945 37.38420105 C122.27264786 38.08982681 121.55623627 38.79545258 120.81811523 39.52246094 C119.6913588 40.6498745 119.6913588 40.6498745 118.5418396 41.80006409 C116.05446839 44.28534345 113.5566357 46.75982519 111.05859375 49.234375 C109.33301148 50.95436275 107.60808989 52.67501357 105.88380432 54.39630127 C101.34147827 58.92716732 96.79021534 63.44895266 92.23706055 67.96893311 C87.59338583 72.58193211 82.95818117 77.2034244 78.32226562 81.82421875 C69.22313482 90.89116497 60.11482877 99.9488362 51 109 C48.03165735 107.66227527 45.93456033 106.18948535 43.6269989 103.90115356 C42.98057938 103.26470917 42.33415985 102.62826477 41.66815186 101.97253418 C40.97030579 101.27535278 40.27245972 100.57817139 39.5534668 99.85986328 C38.81000504 99.12472504 38.06654327 98.38958679 37.30055237 97.63217163 C34.84462428 95.20034207 32.39642632 92.76091568 29.94921875 90.3203125 C28.24867938 88.62873618 26.54806085 86.93723943 24.84736633 85.24581909 C21.28537763 81.70032019 17.72780692 78.15045041 14.17260742 74.59814453 C9.60644536 70.03738067 5.02433174 65.49300791 0.43812847 60.95240974 C-3.0780249 57.46592223 -6.5829472 53.96831112 -10.08479881 50.46746445 C-11.77009995 48.78638275 -13.45954254 47.10944266 -15.15310097 45.43667984 C-17.51413801 43.10235098 -19.85902109 40.75290921 -22.20043945 38.39892578 C-22.90840668 37.70579285 -23.6163739 37.01265991 -24.34579468 36.29852295 C-25.29427528 35.33539688 -25.29427528 35.33539688 -26.26191711 34.35281372 C-27.09618209 33.52156573 -27.09618209 33.52156573 -27.94730091 32.67352486 C-29 31 -29 31 -28.8100462 28.94987297 C-27.53005709 25.86879417 -25.31338361 23.9980223 -22.9375 21.6875 C-22.43943848 21.20039551 -21.94137695 20.71329102 -21.42822266 20.21142578 C-18.05363263 16.93669497 -14.56891734 13.81939839 -10.9921875 10.76953125 C-7.15451086 7.36077141 -3.59060249 3.66540671 0 0 Z " fill="#F2BA2E" transform="translate(77,148)"/>
<path d="M0 0 C2.29378348 0.98260143 3.60492454 2.07836774 5.37426281 3.83588409 C6.02068233 4.47095383 6.66710186 5.10602356 7.33310986 5.76033783 C8.03095592 6.4611145 8.72880199 7.16189117 9.44779491 7.8839035 C10.56298756 8.98639183 10.56298756 8.98639183 11.70070934 10.11115265 C14.1590494 12.54606787 16.60600346 14.99205579 19.05204296 17.43932343 C20.75236427 19.13254792 22.45298572 20.82547108 24.15389538 22.51810455 C27.71736768 26.06812038 31.27483179 29.62403338 34.82865429 33.18370819 C39.39311389 37.75407305 43.97557695 42.30590468 48.56313324 46.85307026 C52.07950043 50.34364789 55.58439471 53.84556927 59.08606052 57.35088921 C60.77149328 59.03462337 62.46093586 60.71435321 64.15436268 62.39004707 C66.51552119 64.72918444 68.86039748 67.08351027 71.20170116 69.44249725 C72.263652 70.48455322 72.263652 70.48455322 73.34705639 71.54766083 C74.29553699 72.51295464 74.29553699 72.51295464 75.26317883 73.49774933 C75.81935548 74.05321347 76.37553213 74.60867762 76.94856262 75.18097401 C78.00126171 76.85729218 78.00126171 76.85729218 77.83439445 78.88397503 C76.39749448 82.28734547 73.60415002 84.61631883 70.99735546 87.15416718 C70.3994772 87.7478006 69.80159893 88.34143402 69.18560314 88.95305634 C67.27692069 90.84496412 65.35806631 92.72616716 63.43876171 94.60729218 C62.14185335 95.88915219 60.84562093 97.17169647 59.55008984 98.45494843 C56.37493214 101.5970529 53.19061225 104.72959756 50.00126171 107.85729218 C46.38433398 106.32831642 44.08090951 104.17913585 41.3245039 101.40758514 C40.40385143 100.48678162 39.48319897 99.56597809 38.53464794 98.61727142 C37.53903641 97.61144753 36.54353523 96.60551438 35.54813671 95.59947968 C34.52295978 94.57057069 33.49733896 93.5421038 32.47129345 92.51406097 C29.77733007 89.81247636 27.08942804 87.10493877 24.40275097 84.39611053 C21.65797867 81.63084729 18.90750699 78.87126585 16.15751171 76.11119843 C10.76650599 70.69876943 5.38189207 65.28003779 0.00126171 59.85729218 C-3.61566602 61.38626793 -5.91909049 63.53544851 -8.6754961 66.30699921 C-9.59614857 67.22780273 -10.51680103 68.14860626 -11.46535206 69.09731293 C-12.46096359 70.10313683 -13.45646477 71.10906997 -14.45186329 72.11510468 C-15.47704022 73.14401367 -16.50266104 74.17248055 -17.52870655 75.20052338 C-20.22266993 77.90210799 -22.91057196 80.60964558 -25.59724903 83.31847382 C-28.34202133 86.08373706 -31.09249301 88.8433185 -33.84248829 91.60338593 C-39.23349401 97.01581492 -44.61810793 102.43454656 -49.99873829 107.85729218 C-54.12264228 105.96411377 -56.93154433 103.1790385 -60.07686329 99.97447968 C-60.64830067 99.4002124 -61.21973804 98.82594513 -61.80849171 98.23427582 C-63.62666774 96.40493408 -65.4377532 94.56875025 -67.24873829 92.73229218 C-68.48265158 91.48834444 -69.71702151 90.24484947 -70.95186329 89.00182343 C-73.97280572 85.95886851 -76.98740921 82.90975963 -79.99873829 79.85729218 C-78.66101356 76.88894952 -77.18822364 74.79185251 -74.89989185 72.48429108 C-73.94522526 71.51466179 -73.94522526 71.51466179 -72.97127247 70.52544403 C-72.27409107 69.82759796 -71.57690968 69.12975189 -70.85860157 68.41075897 C-69.7558942 67.29556633 -69.7558942 67.29556633 -68.63090992 66.15784454 C-66.19908036 63.70191646 -63.75965397 61.25371849 -61.31905079 58.80651093 C-59.62747447 57.10597155 -57.93597772 55.40535302 -56.24455738 53.70465851 C-52.69905848 50.1426698 -49.14918869 46.5850991 -45.59688282 43.0298996 C-41.03611895 38.46373753 -36.4917462 33.88162391 -31.95114803 29.29542065 C-28.46466052 25.77926727 -24.96704941 22.27434498 -21.46620274 18.77249336 C-19.78512104 17.08719222 -18.10818095 15.39774964 -16.43541813 13.70419121 C-14.10108927 11.34315416 -11.7516475 8.99827109 -9.39766407 6.65685272 C-8.35796467 5.59490189 -8.35796467 5.59490189 -7.29726124 4.5114975 C-6.33413517 3.56301689 -6.33413517 3.56301689 -5.35155201 2.59537506 C-4.79738668 2.03919841 -4.24322136 1.48302176 -3.67226315 0.90999126 C-1.99873829 -0.14270782 -1.99873829 -0.14270782 0 0 Z " fill="#F3B92E" transform="translate(127.9987382888794,0.14270782470703125)"/>
<path d="M0 0 C10.23 0 20.46 0 31 0 C31 45.21 31 90.42 31 137 C20.77 137 10.54 137 0 137 C0 91.79 0 46.58 0 0 Z " fill="#F3BA2E" transform="translate(453,62)"/>
<path d="M0 0 C4.29067546 1.65236651 7.1429553 4.8905207 10.296875 8.1015625 C10.89050842 8.69802582 11.48414185 9.29448914 12.09576416 9.9090271 C13.98526627 11.8096981 15.86768392 13.71721474 17.75 15.625 C19.03209065 16.91712468 20.31463761 18.20879676 21.59765625 19.5 C24.73708432 22.66144479 27.87017801 25.8290461 31 29 C29.34763349 33.29067546 26.1094793 36.1429553 22.8984375 39.296875 C22.30197418 39.89050842 21.70551086 40.48414185 21.0909729 41.09576416 C19.1903019 42.98526627 17.28278526 44.86768392 15.375 46.75 C14.08287532 48.03209065 12.79120324 49.31463761 11.5 50.59765625 C8.33855521 53.73708432 5.1709539 56.87017801 2 60 C-2.29067546 58.34763349 -5.1429553 55.1094793 -8.296875 51.8984375 C-8.89050842 51.30197418 -9.48414185 50.70551086 -10.09576416 50.0909729 C-11.98526627 48.1903019 -13.86768392 46.28278526 -15.75 44.375 C-17.03209065 43.08287532 -18.31463761 41.79120324 -19.59765625 40.5 C-22.73708432 37.33855521 -25.87017801 34.1709539 -29 31 C-27.34763349 26.70932454 -24.1094793 23.8570447 -20.8984375 20.703125 C-20.30197418 20.10949158 -19.70551086 19.51585815 -19.0909729 18.90423584 C-17.1903019 17.01473373 -15.28278526 15.13231608 -13.375 13.25 C-12.08287532 11.96790935 -10.79120324 10.68536239 -9.5 9.40234375 C-6.33855521 6.26291568 -3.1709539 3.12982199 0 0 Z " fill="#F3BB2E" transform="translate(126,98)"/>
<path d="M0 0 C3.44415822 1.37255377 5.76112738 4.19144865 8.30459595 6.80401611 C8.89822937 7.40189438 9.49186279 7.99977264 10.10348511 8.61576843 C11.99539289 10.52445088 13.87659593 12.44330526 15.75772095 14.36260986 C17.03958096 15.65951822 18.32212524 16.95575064 19.6053772 18.25128174 C22.74748167 21.42643944 25.88002634 24.61075932 29.00772095 27.80010986 C27.35535444 32.09078533 24.11720024 34.94306516 20.90615845 38.09698486 C20.30969513 38.69061829 19.71323181 39.28425171 19.09869385 39.89587402 C17.19802285 41.78537613 15.2905062 43.66779378 13.38272095 45.55010986 C12.09059626 46.83220051 10.79892419 48.11474748 9.50772095 49.39776611 C6.34627616 52.53719418 3.17867485 55.67028787 0.00772095 58.80010986 C-4.41888615 55.08995459 -8.63442781 51.27862693 -12.7071228 47.18292236 C-13.2077272 46.68090302 -13.7083316 46.17888367 -14.22410583 45.66165161 C-15.79506503 44.08517316 -17.36247782 42.50522414 -18.92977905 40.92510986 C-20.00571632 39.84414713 -21.08188636 38.76341603 -22.15829468 37.68292236 C-24.77231197 35.05798346 -27.38316501 32.42992358 -29.99227905 29.80010986 C-28.34731166 25.64885361 -25.3349915 22.80203629 -22.25009155 19.68682861 C-21.68531097 19.11301956 -21.1205304 18.53921051 -20.53863525 17.94801331 C-19.34606882 16.74097363 -18.15070051 15.53669663 -16.95272827 14.33502197 C-15.11832657 12.4886642 -13.30340265 10.62447336 -11.4883728 8.75909424 C-10.32676461 7.58802832 -9.16404148 6.41806705 -8.00009155 5.24932861 C-7.45829254 4.68799728 -6.91649353 4.12666595 -6.35827637 3.54832458 C-2.51238373 -0.25207349 -2.51238373 -0.25207349 0 0 Z " fill="#F3B92E" transform="translate(226.99227905273438,99.19989013671875)"/>
<path d="M0 0 C4.19625909 1.63778045 6.98676785 4.73323182 10.078125 7.8828125 C10.64956238 8.45707977 11.22099976 9.03134705 11.80975342 9.62301636 C13.62792945 11.4523581 15.43901492 13.28854193 17.25 15.125 C18.48391329 16.36894774 19.71828322 17.6124427 20.953125 18.85546875 C23.97406743 21.89842367 26.98867092 24.94753254 30 28 C28.34763349 32.29067546 25.1094793 35.1429553 21.8984375 38.296875 C21.30197418 38.89050842 20.70551086 39.48414185 20.0909729 40.09576416 C18.1903019 41.98526627 16.28278526 43.86768392 14.375 45.75 C13.08287532 47.03209065 11.79120324 48.31463761 10.5 49.59765625 C7.33855521 52.73708432 4.1709539 55.87017801 1 59 C-4.72445758 54.16517556 -10.16668888 49.11555883 -15.50024414 43.84985352 C-16.4657004 42.90112506 -17.43651146 41.9578179 -18.41235352 41.01977539 C-19.83760318 39.6491694 -21.24526553 38.26034832 -22.65234375 36.87109375 C-23.48757568 36.05568115 -24.32280762 35.24026855 -25.18334961 34.40014648 C-27 32 -27 32 -27.64086914 29.59521484 C-26.65875156 25.61810634 -23.96393575 23.35023927 -21.09375 20.60546875 C-20.49445679 20.01325027 -19.89516357 19.4210318 -19.27770996 18.81086731 C-17.36322907 16.92434721 -15.4320948 15.05596006 -13.5 13.1875 C-12.1980824 11.91066284 -10.89728667 10.63268071 -9.59765625 9.35351562 C-6.41129715 6.22224841 -3.20989153 3.107132 0 0 Z " fill="#F2B92E" transform="translate(27,99)"/>
</svg>
