<?xml version="1.0" encoding="UTF-8"?>
<svg version="1.1" xmlns="http://www.w3.org/2000/svg" width="256" height="256">
<path d="M0 0 C1.65 0 3.3 0 5 0 C5 0.66 5 1.32 5 2 C6.093125 1.979375 7.18625 1.95875 8.3125 1.9375 C12 2 12 2 15 3 C15 3.66 15 4.32 15 5 C16.98 5.495 16.98 5.495 19 6 C19 6.66 19 7.32 19 8 C19.598125 8.144375 20.19625 8.28875 20.8125 8.4375 C22.56150404 8.8872439 24.28677023 9.42892341 26 10 C26 10.66 26 11.32 26 12 C26.99 12.33 27.98 12.66 29 13 C29 13.66 29 14.32 29 15 C30.98 15.495 30.98 15.495 33 16 C33 16.66 33 17.32 33 18 C34.175625 18.2165625 34.175625 18.2165625 35.375 18.4375 C38 19 38 19 40 20 C40 20.66 40 21.32 40 22 C40.804375 22.12375 41.60875 22.2475 42.4375 22.375 C43.283125 22.58125 44.12875 22.7875 45 23 C45.33 23.66 45.66 24.32 46 25 C48.01669827 26.13350534 48.01669827 26.13350534 50 27 C50 27.66 50 28.32 50 29 C51.65 29.33 53.3 29.66 55 30 C55 30.66 55 31.32 55 32 C55.9590625 32.185625 55.9590625 32.185625 56.9375 32.375 C57.9584375 32.684375 57.9584375 32.684375 59 33 C59.33 33.66 59.66 34.32 60 35 C61.64363134 35.72159424 63.31050386 36.39351421 65 37 C65 37.66 65 38.32 65 39 C66.32 39.33 67.64 39.66 69 40 C69 40.66 69 41.32 69 42 C70.32 42.33 71.64 42.66 73 43 C73 43.66 73 44.32 73 45 C73.598125 45.144375 74.19625 45.28875 74.8125 45.4375 C76.56150404 45.8872439 78.28677023 46.42892341 80 47 C80 47.66 80 48.32 80 49 C80.99 49.33 81.98 49.66 83 50 C83 50.66 83 51.32 83 52 C84.32 52.33 85.64 52.66 87 53 C87 53.66 87 54.32 87 55 C87.680625 55.0825 88.36125 55.165 89.0625 55.25 C94.13000963 56.54383225 98.46538494 59.0933202 102 63 C102.66 63.33 103.32 63.66 104 64 C104 64.66 104 65.32 104 66 C104.99 66.33 105.98 66.66 107 67 C107 67.99 107 68.98 107 70 C107.66 70 108.32 70 109 70 C109.33 74.29 109.66 78.58 110 83 C110.66 83 111.32 83 112 83 C112.33868777 85.20751848 112.67071689 87.41605911 113 89.625 C113.185625 90.85476562 113.37125 92.08453125 113.5625 93.3515625 C113.95402516 96.6166027 114.08080924 99.71712451 114 103 C114.66 103 115.32 103 116 103 C116.33 107.62 116.66 112.24 117 117 C117.66 117 118.32 117 119 117 C119.12117187 117.92941406 119.24234375 118.85882813 119.3671875 119.81640625 C120.34282045 127.33602015 120.34282045 127.33602015 122.125 134.6875 C123.60697649 140.29783957 123.84511064 146.46466809 122 152 C121.34 152 120.68 152 120 152 C119.938125 152.9075 119.87625 153.815 119.8125 154.75 C118.79406862 158.82372552 117.38299913 159.63976805 114 162 C113.29875 162.7425 112.5975 163.485 111.875 164.25 C110 166 110 166 107 166 C106.67 166.99 106.34 167.98 106 169 C105.34 169 104.68 169 104 169 C103.67 169.99 103.34 170.98 103 172 C102.01 172 101.02 172 100 172 C99.67 172.99 99.34 173.98 99 175 C96.99878825 177.36506843 96.03200339 177.9893322 93 179 C92.34 179.680625 91.68 180.36125 91 181.0625 C89 183 89 183 86 183 C85.67 183.99 85.34 184.98 85 186 C84.34 186 83.68 186 83 186 C82.67 186.99 82.34 187.98 82 189 C81.01 189 80.02 189 79 189 C79 189.66 79 190.32 79 191 C76.26647487 194.34097516 74.28806873 195.52354792 70 196 C69.67 196.99 69.34 197.98 69 199 C68.34 199 67.68 199 67 199 C67 199.66 67 200.32 67 201 C66.0409375 201.433125 66.0409375 201.433125 65.0625 201.875 C62.84793921 202.82823451 62.84793921 202.82823451 62 205 C61.01 205.33 60.02 205.66 59 206 C58.38125 206.61875 57.7625 207.2375 57.125 207.875 C54.91804552 210.08195448 52.66868676 211.41321328 50 213 C49.67 213.66 49.34 214.32 49 215 C48.01 215.33 47.02 215.66 46 216 C45.505 216.495 45.01 216.99 44.5 217.5 C43 219 43 219 40 220 C39.34 220.99 38.68 221.98 38 223 C37.01 223 36.02 223 35 223 C35 223.66 35 224.32 35 225 C33.56705502 225.84114171 32.12845595 226.67265687 30.6875 227.5 C29.88699219 227.9640625 29.08648437 228.428125 28.26171875 228.90625 C26 230 26 230 23 230 C23 230.66 23 231.32 23 232 C21.35 232.33 19.7 232.66 18 233 C18 233.66 18 234.32 18 235 C13.03926578 236.32286246 8.08888488 236.08893197 3 236 C3 236.66 3 237.32 3 238 C2.34 238 1.68 238 1 238 C1 237.34 1 236.68 1 236 C-0.794375 236.0309375 -0.794375 236.0309375 -2.625 236.0625 C-6.18004869 236.06882571 -9.50555624 235.69888875 -13 235 C-13 234.34 -13 233.68 -13 233 C-14.4540625 232.814375 -14.4540625 232.814375 -15.9375 232.625 C-16.948125 232.41875 -17.95875 232.2125 -19 232 C-19.33 231.34 -19.66 230.68 -20 230 C-20.804375 229.54625 -21.60875 229.0925 -22.4375 228.625 C-25 227 -25 227 -26 224.875 C-26.495 223.946875 -26.495 223.946875 -27 223 C-29.52733235 222.34444881 -29.52733235 222.34444881 -32 222 C-32.33 221.34 -32.66 220.68 -33 220 C-35.01669827 218.86649466 -35.01669827 218.86649466 -37 218 C-37 217.34 -37 216.68 -37 216 C-37.7425 215.731875 -38.485 215.46375 -39.25 215.1875 C-41.89061949 214.04723249 -43.85552844 212.90619694 -46 211 C-46 210.34 -46 209.68 -46 209 C-47.32 208.67 -48.64 208.34 -50 208 C-50 207.34 -50 206.68 -50 206 C-51.32 205.67 -52.64 205.34 -54 205 C-54 204.34 -54 203.68 -54 203 C-55.36125 202.6596875 -55.36125 202.6596875 -56.75 202.3125 C-60.48428873 200.80442186 -61.63968133 199.17422166 -64 196 C-64.99 195.67 -65.98 195.34 -67 195 C-67 194.34 -67 193.68 -67 193 C-67.928125 192.731875 -68.85625 192.46375 -69.8125 192.1875 C-72.75781025 191.09022755 -74.15017877 190.46642831 -76 188 C-76 187.34 -76 186.68 -76 186 C-76.8971875 185.8453125 -76.8971875 185.8453125 -77.8125 185.6875 C-80.31537724 184.90088144 -81.21314755 183.86454169 -83 182 C-83.99 181.67 -84.98 181.34 -86 181 C-87.6875 179.5625 -87.6875 179.5625 -89 178 C-89 177.34 -89 176.68 -89 176 C-90.65 175.34 -92.3 174.68 -94 174 C-94 173.34 -94 172.68 -94 172 C-95.32 171.67 -96.64 171.34 -98 171 C-98 170.34 -98 169.68 -98 169 C-98.99 168.67 -99.98 168.34 -101 168 C-101 167.34 -101 166.68 -101 166 C-101.721875 165.95875 -102.44375 165.9175 -103.1875 165.875 C-107.14196163 164.64472305 -108.53398317 162.24475899 -111 159 C-111.53625 158.484375 -112.0725 157.96875 -112.625 157.4375 C-116.23313508 153.66535878 -117.20034849 150.80294304 -117.25 145.625 C-117.13407305 141.34149913 -116.74957358 137.21635136 -116 133 C-115.34 133 -114.68 133 -114 133 C-113.67 128.38 -113.34 123.76 -113 119 C-112.34 119 -111.68 119 -111 119 C-111.020625 117.824375 -111.04125 116.64875 -111.0625 115.4375 C-111.06947261 111.52586533 -110.64250343 107.85502056 -110 104 C-109.34 104 -108.68 104 -108 104 C-107.93941406 103.05898437 -107.87882812 102.11796875 -107.81640625 101.1484375 C-107.73261719 99.90320313 -107.64882812 98.65796875 -107.5625 97.375 C-107.48128906 96.14523438 -107.40007812 94.91546875 -107.31640625 93.6484375 C-107.03336056 90.38467612 -106.58961047 87.22056141 -106 84 C-105.34 84 -104.68 84 -104 84 C-103.67 79.38 -103.34 74.76 -103 70 C-102.34 70 -101.68 70 -101 70 C-100.67 68.68 -100.34 67.36 -100 66 C-99.34 66 -98.68 66 -98 66 C-98 65.34 -98 64.68 -98 64 C-95.35261084 62.5393715 -94.10551666 62 -91 62 C-90.67 61.01 -90.34 60.02 -90 59 C-89.01 59 -88.02 59 -87 59 C-87 58.34 -87 57.68 -87 57 C-84.35261084 55.5393715 -83.10551666 55 -80 55 C-79.67 54.01 -79.34 53.02 -79 52 C-78.01 52 -77.02 52 -76 52 C-76 51.34 -76 50.68 -76 50 C-73.525 49.505 -73.525 49.505 -71 49 C-70.67 48.01 -70.34 47.02 -70 46 C-69.01 45.67 -68.02 45.34 -67 45 C-66.505 44.01 -66.505 44.01 -66 43 C-63.4375 42.375 -63.4375 42.375 -61 42 C-61 41.34 -61 40.68 -61 40 C-60.0409375 39.8453125 -60.0409375 39.8453125 -59.0625 39.6875 C-58.381875 39.460625 -57.70125 39.23375 -57 39 C-56.67 38.01 -56.34 37.02 -56 36 C-53.33916031 34.00603743 -50.38757675 32 -47 32 C-47 31.34 -47 30.68 -47 30 C-46.01 29.67 -45.02 29.34 -44 29 C-43.01 27.515 -43.01 27.515 -42 26 C-39.375 25.3125 -39.375 25.3125 -37 25 C-36.505 23.515 -36.505 23.515 -36 22 C-35.01 22 -34.02 22 -33 22 C-32.505 20.515 -32.505 20.515 -32 19 C-30.35 18.67 -28.7 18.34 -27 18 C-26.505 16.515 -26.505 16.515 -26 15 C-25.01 15 -24.02 15 -23 15 C-22.67 14.01 -22.34 13.02 -22 12 C-21.34 12 -20.68 12 -20 12 C-20 11.34 -20 10.68 -20 10 C-16.8364623 7.830717 -13.5875213 6.33250791 -10 5 C-10 4.34 -10 3.68 -10 3 C-6.7 2.67 -3.4 2.34 0 2 C0 1.34 0 0.68 0 0 Z " fill="#4D22C7" transform="translate(125,9)"/>
<path d="M0 0 C1.65 0 3.3 0 5 0 C5 0.66 5 1.32 5 2 C6.093125 1.979375 7.18625 1.95875 8.3125 1.9375 C12 2 12 2 15 3 C15 3.66 15 4.32 15 5 C16.32 5.33 17.64 5.66 19 6 C19 6.66 19 7.32 19 8 C19.598125 8.144375 20.19625 8.28875 20.8125 8.4375 C22.56150404 8.8872439 24.28677023 9.42892341 26 10 C26 10.66 26 11.32 26 12 C26.99 12.33 27.98 12.66 29 13 C29 13.66 29 14.32 29 15 C30.98 15.495 30.98 15.495 33 16 C33 16.66 33 17.32 33 18 C34.175625 18.2165625 34.175625 18.2165625 35.375 18.4375 C38 19 38 19 40 20 C40 20.66 40 21.32 40 22 C40.804375 22.12375 41.60875 22.2475 42.4375 22.375 C43.283125 22.58125 44.12875 22.7875 45 23 C45.33 23.66 45.66 24.32 46 25 C48.01669827 26.13350534 48.01669827 26.13350534 50 27 C50 27.66 50 28.32 50 29 C51.65 29.33 53.3 29.66 55 30 C55 30.66 55 31.32 55 32 C55.9590625 32.185625 55.9590625 32.185625 56.9375 32.375 C57.9584375 32.684375 57.9584375 32.684375 59 33 C59.33 33.66 59.66 34.32 60 35 C61.64363134 35.72159424 63.31050386 36.39351421 65 37 C65 37.66 65 38.32 65 39 C66.32 39.33 67.64 39.66 69 40 C69 40.66 69 41.32 69 42 C70.32 42.33 71.64 42.66 73 43 C73 43.66 73 44.32 73 45 C73.598125 45.144375 74.19625 45.28875 74.8125 45.4375 C76.56150404 45.8872439 78.28677023 46.42892341 80 47 C80 47.66 80 48.32 80 49 C80.99 49.33 81.98 49.66 83 50 C83 50.66 83 51.32 83 52 C84.32 52.33 85.64 52.66 87 53 C87 53.66 87 54.32 87 55 C87.680625 55.0825 88.36125 55.165 89.0625 55.25 C94.13000963 56.54383225 98.46538494 59.0933202 102 63 C102.66 63.33 103.32 63.66 104 64 C104 64.66 104 65.32 104 66 C104.99 66.33 105.98 66.66 107 67 C107 67.99 107 68.98 107 70 C107.66 70 108.32 70 109 70 C109 71.65 109 73.3 109 75 C108.34 75 107.68 75 107 75 C107 76.32 107 77.64 107 79 C106.34 79 105.68 79 105 79 C104.67 80.32 104.34 81.64 104 83 C103.34 83 102.68 83 102 83 C101.7525 83.556875 101.505 84.11375 101.25 84.6875 C98.34286659 90.06569681 94.92820611 92.91287704 89.70703125 95.88671875 C87.83974281 96.89977829 87.83974281 96.89977829 87 99 C86.01 99 85.02 99 84 99 C83.67 99.99 83.34 100.98 83 102 C81.1875 103.31640625 81.1875 103.31640625 79 104.5625 C75.91497173 106.21374548 75.91497173 106.21374548 74 109 C73.01 109.33 72.02 109.66 71 110 C69.98995052 110.98984849 68.99166214 111.99173108 68 113 C65.42666326 114.84573194 62.80573214 116.60918051 60.1796875 118.37890625 C57.90343029 119.81746332 57.90343029 119.81746332 57 122 C55.02111039 122.72693904 53.02045442 123.39816251 51 124 C51 124.66 51 125.32 51 126 C49.68 126.33 48.36 126.66 47 127 C47 127.66 47 128.32 47 129 C45.01310269 130.35278115 43.01254782 131.68568305 41 133 C40.67 133.66 40.34 134.32 40 135 C37.6859378 135.73075648 35.35171131 136.40138258 33 137 C33 137.66 33 138.32 33 139 C30.50585636 142.52114396 27.02377359 143.01303667 23 144 C23 144.66 23 145.32 23 146 C22.01 146.33 21.02 146.66 20 147 C19.67 147.66 19.34 148.32 19 149 C11.77132054 153.23217558 4.21143414 154.04304643 -4 153 C-7.2372641 152.03108459 -10.17961322 150.87569412 -13 149 C-13.33 148.34 -13.66 147.68 -14 147 C-14.99 146.67 -15.98 146.34 -17 146 C-17.33 145.34 -17.66 144.68 -18 144 C-19.65311615 142.97775503 -21.32265135 141.98197722 -23 141 C-25.85143456 138.94728661 -28.6630782 136.84651959 -31.4765625 134.7421875 C-33.94887554 132.86217357 -33.94887554 132.86217357 -37 132 C-37.639375 131.195625 -38.27875 130.39125 -38.9375 129.5625 C-40.91391935 127.10694869 -42.12464744 126.12960279 -45 125 C-45 124.34 -45 123.68 -45 123 C-47.97 122.01 -47.97 122.01 -51 121 C-51 120.34 -51 119.68 -51 119 C-51.99 119 -52.98 119 -54 119 C-56.1875 117.125 -56.1875 117.125 -58 115 C-58 114.34 -58 113.68 -58 113 C-60.97 112.505 -60.97 112.505 -64 112 C-64.33 111.01 -64.66 110.02 -65 109 C-67.01508358 108.26676204 -67.01508358 108.26676204 -69 108 C-69 107.34 -69 106.68 -69 106 C-69.99 105.67 -70.98 105.34 -72 105 C-72 104.34 -72 103.68 -72 103 C-73.98 102.34 -75.96 101.68 -78 101 C-78 100.34 -78 99.68 -78 99 C-78.99 99 -79.98 99 -81 99 C-82.66666667 97.33333333 -84.33333333 95.66666667 -86 94 C-89.16645474 92.20679176 -89.16645474 92.20679176 -92 91 C-92 90.34 -92 89.68 -92 89 C-92.99 88.67 -93.98 88.34 -95 88 C-95 87.34 -95 86.68 -95 86 C-95.99 85.67 -96.98 85.34 -98 85 C-98 84.01 -98 83.02 -98 82 C-98.99 81.67 -99.98 81.34 -101 81 C-101 80.01 -101 79.02 -101 78 C-101.66 78 -102.32 78 -103 78 C-103 75.36 -103 72.72 -103 70 C-102.34 70 -101.68 70 -101 70 C-100.67 68.68 -100.34 67.36 -100 66 C-99.34 66 -98.68 66 -98 66 C-98 65.34 -98 64.68 -98 64 C-95.35261084 62.5393715 -94.10551666 62 -91 62 C-90.67 61.01 -90.34 60.02 -90 59 C-89.01 59 -88.02 59 -87 59 C-87 58.34 -87 57.68 -87 57 C-84.35261084 55.5393715 -83.10551666 55 -80 55 C-79.67 54.01 -79.34 53.02 -79 52 C-78.01 52 -77.02 52 -76 52 C-76 51.34 -76 50.68 -76 50 C-73.525 49.505 -73.525 49.505 -71 49 C-70.67 48.01 -70.34 47.02 -70 46 C-69.01 45.67 -68.02 45.34 -67 45 C-66.505 44.01 -66.505 44.01 -66 43 C-63.4375 42.375 -63.4375 42.375 -61 42 C-61 41.34 -61 40.68 -61 40 C-60.0409375 39.8453125 -60.0409375 39.8453125 -59.0625 39.6875 C-58.381875 39.460625 -57.70125 39.23375 -57 39 C-56.67 38.01 -56.34 37.02 -56 36 C-53.33916031 34.00603743 -50.38757675 32 -47 32 C-47 31.34 -47 30.68 -47 30 C-46.01 29.67 -45.02 29.34 -44 29 C-43.34 28.01 -42.68 27.02 -42 26 C-39.375 25.3125 -39.375 25.3125 -37 25 C-36.505 23.515 -36.505 23.515 -36 22 C-35.01 22 -34.02 22 -33 22 C-32.505 20.515 -32.505 20.515 -32 19 C-30.35 18.67 -28.7 18.34 -27 18 C-26.505 16.515 -26.505 16.515 -26 15 C-25.01 15 -24.02 15 -23 15 C-22.67 14.01 -22.34 13.02 -22 12 C-21.34 12 -20.68 12 -20 12 C-20 11.34 -20 10.68 -20 10 C-16.8364623 7.830717 -13.5875213 6.33250791 -10 5 C-10 4.34 -10 3.68 -10 3 C-6.7 2.67 -3.4 2.34 0 2 C0 1.34 0 0.68 0 0 Z " fill="#7448FE" transform="translate(125,9)"/>
<path d="M0 0 C0.99 0.33 1.98 0.66 3 1 C3.33 1.99 3.66 2.98 4 4 C4.66 4.33 5.32 4.66 6 5 C6.33 5.99 6.66 6.98 7 8 C8.64639965 9.35827971 10.31295807 10.69254251 12 12 C12.33 12.66 12.66 13.32 13 14 C14.99107248 15.01765927 16.99218823 16.01577854 19 17 C21.375 18.5625 21.375 18.5625 23 20 C23 20.66 23 21.32 23 22 C23.99 22 24.98 22 26 22 C26.495 22.99 26.495 22.99 27 24 C27.78375 24.309375 28.5675 24.61875 29.375 24.9375 C31.97587837 25.99023648 33.27627805 26.822667 35 29 C35 29.66 35 30.32 35 31 C35.639375 31.12375 36.27875 31.2475 36.9375 31.375 C37.9584375 31.684375 37.9584375 31.684375 39 32 C39.33 32.66 39.66 33.32 40 34 C40.928125 34.28875 41.85625 34.5775 42.8125 34.875 C46.2109638 36.07445781 47.74904224 37.22959045 50 40 C50 40.66 50 41.32 50 42 C50.99 42 51.98 42 53 42 C53.33 42.66 53.66 43.32 54 44 C54.825 44.33 55.65 44.66 56.5 45 C59 46 59 46 60 48 C62.01669827 49.13350534 62.01669827 49.13350534 64 50 C64 50.66 64 51.32 64 52 C65.485 52.495 65.485 52.495 67 53 C67 53.66 67 54.32 67 55 C67.55945313 55.09667969 68.11890625 55.19335938 68.6953125 55.29296875 C71.54406193 56.16690713 73.46755468 57.56128977 75.875 59.3125 C78.75281402 61.38997521 81.6201522 63.42373852 84.625 65.3125 C85.40875 65.869375 86.1925 66.42625 87 67 C87 67.66 87 68.32 87 69 C88.98 69.495 88.98 69.495 91 70 C91 70.66 91 71.32 91 72 C92.11375 72.185625 92.11375 72.185625 93.25 72.375 C96 73 96 73 97.9375 74 C100.53540041 75.3794871 100.53540041 75.3794871 106 76 C106 103.39 106 130.78 106 159 C95.875 159 95.875 159 91 158 C91 157.34 91 156.68 91 156 C89.5459375 155.814375 89.5459375 155.814375 88.0625 155.625 C87.051875 155.41875 86.04125 155.2125 85 155 C84.67 154.34 84.34 153.68 84 153 C83.195625 152.54625 82.39125 152.0925 81.5625 151.625 C79 150 79 150 78 147.875 C77.505 146.946875 77.505 146.946875 77 146 C74.47266765 145.34444881 74.47266765 145.34444881 72 145 C71.67 144.34 71.34 143.68 71 143 C68.98330173 141.86649466 68.98330173 141.86649466 67 141 C67 140.34 67 139.68 67 139 C66.2575 138.731875 65.515 138.46375 64.75 138.1875 C62.10938051 137.04723249 60.14447156 135.90619694 58 134 C58 133.34 58 132.68 58 132 C56.68 131.67 55.36 131.34 54 131 C54 130.34 54 129.68 54 129 C52.68 128.67 51.36 128.34 50 128 C50 127.34 50 126.68 50 126 C49.0925 125.773125 48.185 125.54625 47.25 125.3125 C43.51571127 123.80442186 42.36031867 122.17422166 40 119 C39.01 118.67 38.02 118.34 37 118 C37 117.34 37 116.68 37 116 C36.071875 115.731875 35.14375 115.46375 34.1875 115.1875 C31.24218975 114.09022755 29.84982123 113.46642831 28 111 C28 110.34 28 109.68 28 109 C27.401875 108.896875 26.80375 108.79375 26.1875 108.6875 C23.68462276 107.90088144 22.78685245 106.86454169 21 105 C20.01 104.67 19.02 104.34 18 104 C16.3125 102.5625 16.3125 102.5625 15 101 C15 100.34 15 99.68 15 99 C13.35 98.34 11.7 97.68 10 97 C10 96.34 10 95.68 10 95 C8.68 94.67 7.36 94.34 6 94 C6 93.34 6 92.68 6 92 C4.515 91.505 4.515 91.505 3 91 C3 90.34 3 89.68 3 89 C2.278125 88.95875 1.55625 88.9175 0.8125 88.875 C-3.14196163 87.64472305 -4.53398317 85.24475899 -7 82 C-7.53625 81.484375 -8.0725 80.96875 -8.625 80.4375 C-12.23313508 76.66535878 -13.20034849 73.80294304 -13.25 68.625 C-13.13407305 64.34149913 -12.74957358 60.21635136 -12 56 C-11.34 56 -10.68 56 -10 56 C-9.67 51.38 -9.34 46.76 -9 42 C-8.34 42 -7.68 42 -7 42 C-7.020625 40.824375 -7.04125 39.64875 -7.0625 38.4375 C-7.06947261 34.52586533 -6.64250343 30.85502056 -6 27 C-5.34 27 -4.68 27 -4 27 C-3.93941406 26.05898437 -3.87882812 25.11796875 -3.81640625 24.1484375 C-3.73261719 22.90320313 -3.64882813 21.65796875 -3.5625 20.375 C-3.48128906 19.14523438 -3.40007813 17.91546875 -3.31640625 16.6484375 C-3.03336056 13.38467612 -2.58961047 10.22056141 -2 7 C-1.34 7 -0.68 7 0 7 C0 4.69 0 2.38 0 0 Z " fill="#2C0E83" transform="translate(21,86)"/>
</svg>
