<?xml version="1.0" encoding="UTF-8"?>
<svg version="1.1" xmlns="http://www.w3.org/2000/svg" width="2560" height="458">
<path d="M0 0 C24.75 0 49.5 0 75 0 C75.33 56.1 75.66 112.2 76 170 C79.96 166.04 83.92 162.08 88 158 C118.33133666 133.53924463 154.24766701 123.79633021 192.9375 127.6875 C233.02726124 132.34786855 269.46977362 152.82751355 295 184 C324.18311719 221.59345466 335.34077805 269.10851303 329.98461914 316.07714844 C324.56882718 358.17525195 305.21173735 398.6367408 271.41992188 425.24414062 C238.38339847 450.6358487 196.8906877 462.19187091 155.46679688 457.05249023 C131.51759753 453.62762205 108.30619948 443.95770678 90 428 C89.13375 427.25492187 88.2675 426.50984375 87.375 425.7421875 C82.3978177 421.37233994 78.37596 417.10528666 74 412 C73.67 425.2 73.34 438.4 73 452 C48.91 452 24.82 452 0 452 C0 302.84 0 153.68 0 0 Z M102 220 C101.36835937 220.55042969 100.73671875 221.10085937 100.0859375 221.66796875 C81.56517565 238.79333073 73.52836181 264.44972967 71.7109375 288.88671875 C71.11947666 313.75495847 78.59877367 337.44529334 94 357 C94.53109375 357.69738281 95.0621875 358.39476562 95.609375 359.11328125 C109.84604722 376.69768579 132.48839381 386.19993555 154.4609375 388.68359375 C177.83219992 390.77307748 201.44452885 384.67159167 219.78125 369.734375 C222.25074834 367.54753008 224.63236652 365.29614188 227 363 C227.61230469 362.46117187 228.22460938 361.92234375 228.85546875 361.3671875 C246.78160001 345.04087116 253.87546287 319.03081756 255.1875 295.66015625 C255.71685466 268.89466103 247.38172327 244.34582509 230 224 C229.42765625 223.32582031 228.8553125 222.65164062 228.265625 221.95703125 C212.65415266 205.07036439 189.34675929 197.18752487 166.9453125 195.8125 C142.61062901 195.29611414 119.95392358 203.68638505 102 220 Z " fill="#0051FF" transform="translate(1232,0)"/>
<path d="M0 0 C45.85841967 -1.1443326 87.25126139 12.41583802 120.87158203 44.06201172 C121.77263672 44.88378906 121.77263672 44.88378906 122.69189453 45.72216797 C140.38006852 62.46423032 152.06644406 85.96918877 158.68408203 109.12451172 C158.86688721 109.7586499 159.04969238 110.39278809 159.23803711 111.04614258 C165.82921265 135.86589512 163.87158203 157.50277948 163.87158203 184.06201172 C83.35158203 184.06201172 2.83158203 184.06201172 -80.12841797 184.06201172 C-71.63366661 213.18687352 -62.64168568 237.0248621 -35.45654297 252.14013672 C-11.63113478 264.88464325 15.76444228 266.42830829 41.57470703 258.99560547 C59.83550189 253.00748767 72.60168783 241.6039781 81.87158203 225.06201172 C82.53158203 223.41201172 83.19158203 221.76201172 83.87158203 220.06201172 C109.94158203 220.06201172 136.01158203 220.06201172 162.87158203 220.06201172 C158.20766647 237.55169508 158.20766647 237.55169508 155.12158203 244.18701172 C154.77724121 244.94071045 154.43290039 245.69440918 154.078125 246.47094727 C138.08720198 280.69617655 108.74544235 306.54160652 73.55517578 319.76123047 C72.33958984 320.19048828 71.12400391 320.61974609 69.87158203 321.06201172 C68.03273438 321.72136719 68.03273438 321.72136719 66.15673828 322.39404297 C51.09721935 327.56044727 34.7834297 330.61692507 18.87158203 331.06201172 C18.18547852 331.08779297 17.499375 331.11357422 16.79248047 331.14013672 C-27.38479777 332.65890864 -72.17483312 319.28455975 -105.00341797 288.93701172 C-106.5943101 287.43137539 -108.17473945 285.9160967 -109.74755859 284.39160156 C-110.92411803 283.25872626 -112.1254142 282.15163395 -113.33154297 281.05029297 C-141.98597529 254.20132285 -155.4964723 211.78971501 -157.2421875 173.57128906 C-158.69336361 126.88722736 -143.84908166 83.56518977 -112.12841797 49.06201172 C-111.41685547 48.26794922 -110.70529297 47.47388672 -109.97216797 46.65576172 C-98.6931141 34.68261223 -84.70875121 25.48358271 -70.12841797 18.06201172 C-69.51820801 17.74538574 -68.90799805 17.42875977 -68.27929688 17.10253906 C-47.31652816 6.32570629 -23.52455091 0.68539068 0 0 Z M-22.12841797 70.06201172 C-23.19962891 70.43583984 -24.27083984 70.80966797 -25.37451172 71.19482422 C-48.37220054 80.04234272 -62.34778556 97.0933727 -72.12841797 119.06201172 C-74.39279002 124.37976797 -74.39279002 124.37976797 -75.12841797 130.06201172 C-21.66841797 130.06201172 31.79158203 130.06201172 86.87158203 130.06201172 C84.434243 110.56329945 74.95582894 94.53265149 59.87158203 82.06201172 C36.99474421 64.96215314 4.72949461 60.62628124 -22.12841797 70.06201172 Z " fill="#0051FF" transform="translate(2396.12841796875,126.93798828125)"/>
<path d="M0 0 C36.64255834 -0.82719208 76.00182808 4.06820402 104.6171875 29.06201172 C105.28878906 29.59052734 105.96039062 30.11904297 106.65234375 30.66357422 C127.1628106 47.21874229 136.32060025 74.17168714 139.40725517 99.47064209 C139.88706859 105.39337886 139.74601549 111.35194662 139.73071289 117.29052734 C139.73043048 118.82863361 139.73058981 120.36674001 139.7311554 121.90484619 C139.73144126 126.06127662 139.7255787 130.21767795 139.71858144 134.37410164 C139.71231271 138.72494482 139.71174132 143.07578874 139.71055603 147.42663574 C139.70745307 155.65704652 139.69925368 163.88744396 139.68920654 172.11784887 C139.6780132 181.49149388 139.67252684 190.86513953 139.66751111 200.23878956 C139.65707017 219.51320604 139.6387376 238.78760423 139.6171875 258.06201172 C151.4971875 258.06201172 163.3771875 258.06201172 175.6171875 258.06201172 C175.6171875 280.17201172 175.6171875 302.28201172 175.6171875 325.06201172 C168.1509375 325.10326172 160.6846875 325.14451172 152.9921875 325.18701172 C150.66591309 325.20521973 148.33963867 325.22342773 145.94287109 325.2421875 C123.91057929 325.34453644 104.75058002 323.57587728 87.9296875 307.87451172 C79.54300604 299.1086064 76.0780508 288.40935554 72.6171875 277.06201172 C72.23949219 277.78904297 71.86179687 278.51607422 71.47265625 279.26513672 C66.8415172 287.72482866 61.39969571 294.27007025 54.6171875 301.06201172 C53.82441406 301.86638672 53.03164062 302.67076172 52.21484375 303.49951172 C27.11289072 327.55729033 -7.62683024 330.85616477 -40.7109375 330.19824219 C-69.1878085 329.14171998 -98.07700706 318.75815189 -118.03515625 297.85888672 C-136.64418852 275.68905792 -140.60272419 250.20742953 -139.3828125 222.06201172 C-138.94506649 217.22330242 -137.88088975 212.68361035 -136.3828125 208.06201172 C-136.05410156 206.99724609 -135.72539063 205.93248047 -135.38671875 204.83544922 C-126.98445228 180.47178382 -108.40198127 164.66969762 -85.875 153.56982422 C-60.69644291 141.74258696 -33.00682383 138.14736604 -5.71142578 134.58251953 C27.67527623 130.90651584 27.67527623 130.90651584 56.6171875 115.06201172 C61.11036709 109.03782279 62.48431041 102.80377461 62.16015625 95.37451172 C60.77268365 86.90993069 56.56338966 79.76142016 49.7890625 74.51513672 C31.6810533 62.39970611 7.95045346 61.14990556 -13.0546875 64.94482422 C-27.75490559 68.20394896 -40.99473171 75.24750307 -49.3828125 88.06201172 C-53.40088562 94.88707676 -55.25605118 101.26388688 -57.3828125 109.06201172 C-81.8028125 109.06201172 -106.2228125 109.06201172 -131.3828125 109.06201172 C-131.3828125 101.1753904 -131.3828125 101.1753904 -130.46484375 97.67919922 C-130.26528076 96.91124023 -130.06571777 96.14328125 -129.86010742 95.35205078 C-129.6407251 94.55508789 -129.42134277 93.758125 -129.1953125 92.93701172 C-128.85367065 91.67969238 -128.85367065 91.67969238 -128.50512695 90.39697266 C-120.45160037 61.44758444 -104.18862221 36.98156794 -78.3828125 21.06201172 C-77.2896875 20.38525391 -76.1965625 19.70849609 -75.0703125 19.01123047 C-52.70878363 5.85402819 -25.66551053 0.66793439 0 0 Z M60.8671875 171.68701172 C45.63811712 185.28268023 23.62719645 186.87415324 4.24633789 189.34106445 C-30.86276257 193.69512547 -30.86276257 193.69512547 -59.3828125 213.06201172 C-64.62750821 220.1415864 -67.14166161 227.10759228 -66.3828125 236.06201172 C-64.85833587 245.16729486 -61.42845152 251.86823383 -54.27734375 257.81201172 C-38.40379704 269.04992089 -18.60237085 270.08752965 0.18603516 267.74121094 C17.71457342 264.62880813 33.00176179 256.43522126 45.6171875 244.06201172 C46.39191406 243.32337891 47.16664063 242.58474609 47.96484375 241.82373047 C52.62824721 237.06433929 55.98128687 232.08341716 58.9921875 226.18701172 C59.31396973 225.56366943 59.63575195 224.94032715 59.96728516 224.2980957 C65.93383536 211.91852948 66.00445017 199.7400832 65.8046875 186.31201172 C65.78960616 184.53598146 65.77592389 182.75993875 65.76367188 180.98388672 C65.73095608 176.67628183 65.67936686 172.36928792 65.6171875 168.06201172 C63.69447542 168.06201172 62.15086213 170.4361317 60.8671875 171.68701172 Z " fill="#0051FF" transform="translate(1732.3828125,126.93798828125)"/>
<path d="M0 0 C0.78890625 0.73605469 1.5778125 1.47210938 2.390625 2.23046875 C4.29454605 4.00084138 6.24141151 5.66385768 8.25 7.3125 C36.35576013 31.44041472 51.97256386 72.47358781 55.36401367 108.46044922 C57.59196655 139.77236758 53.54768013 170.94665926 39.5625 199.25 C39.23411133 199.93368652 38.90572266 200.61737305 38.56738281 201.32177734 C25.5031507 228.34972574 4.74672677 250.17442553 -20.4375 266.25 C-21.01725586 266.62253906 -21.59701172 266.99507813 -22.19433594 267.37890625 C-61.22739143 292.07933366 -110.57675979 296.2739486 -154.88525391 286.40600586 C-181.12810308 280.19313531 -205.58536696 267.62904992 -225.33203125 249.203125 C-227.05007461 247.60939276 -228.78615335 246.13541074 -230.625 244.6875 C-234.30409366 241.49895216 -237.34717167 238.00385807 -240.4375 234.25 C-241.17871094 233.36957031 -241.91992188 232.48914063 -242.68359375 231.58203125 C-266.88818225 201.64579619 -277.9256804 164.68561599 -277.75 126.5625 C-277.74676727 125.30084518 -277.74676727 125.30084518 -277.74346924 124.01370239 C-277.69350726 111.87135251 -277.41547788 100.08228644 -274.4375 88.25 C-274.23350586 87.41307617 -274.02951172 86.57615234 -273.81933594 85.71386719 C-270.82403833 73.70215698 -266.90123792 62.35623665 -261.4375 51.25 C-261.13086426 50.61900391 -260.82422852 49.98800781 -260.50830078 49.33789062 C-248.02134616 23.93674499 -228.98406323 2.82049886 -205.4375 -12.75 C-204.85129883 -13.13929688 -204.26509766 -13.52859375 -203.66113281 -13.9296875 C-182.5672163 -27.73745712 -158.30771161 -35.45690874 -133.4375 -38.75 C-132.50421875 -38.88148437 -131.5709375 -39.01296875 -130.609375 -39.1484375 C-84.6692455 -44.49367269 -34.65711764 -31.06651536 0 0 Z M-180.90234375 61.0546875 C-198.31676216 83.0236461 -204.87836759 110.89923482 -202.21484375 138.5625 C-199.10954508 163.40488934 -188.17767113 185.66769048 -169.125 202.0625 C-153.54780132 214.0754244 -136.05233133 220.81476844 -116.4375 222.25 C-115.54417969 222.32089844 -114.65085937 222.39179688 -113.73046875 222.46484375 C-90.45652288 223.35862047 -68.52326882 214.98572057 -51.125 199.8125 C-49.54495236 198.30990567 -47.98193177 196.7891786 -46.4375 195.25 C-45.30054688 194.14785156 -45.30054688 194.14785156 -44.140625 193.0234375 C-32.775349 181.30544604 -26.77746859 166.74932111 -22.4375 151.25 C-22.18226563 150.33863281 -21.92703125 149.42726563 -21.6640625 148.48828125 C-15.84176986 123.6380612 -20.4185796 94.25825947 -33.75 72.625 C-47.61325361 51.75493925 -66.68142316 36.84293056 -91.4375 31.25 C-125.745978 25.03805913 -157.75411037 34.71485934 -180.90234375 61.0546875 Z " fill="#0051FF" transform="translate(628.4375,166.75)"/>
<path d="M0 0 C26.60686789 23.56257665 38.17145362 58.69291979 40.71813631 93.32164001 C41.60518527 108.39945925 41.20811721 123.58842142 41.14817595 138.68406868 C41.12920363 144.28135185 41.12764275 149.87864178 41.12409973 155.47595215 C41.11483884 166.03623986 41.09030722 176.5964325 41.06005126 187.15667868 C41.02631987 199.1956868 41.00997451 211.23469988 40.99496496 223.27374363 C40.96375114 248.00287283 40.90881519 272.73187198 40.84399414 297.4609375 C16.09399414 297.4609375 -8.65600586 297.4609375 -34.15600586 297.4609375 C-34.17787964 288.86224609 -34.17787964 288.86224609 -34.20019531 280.08984375 C-34.25059408 261.12279454 -34.31705006 242.15582648 -34.39172077 223.18885803 C-34.43659121 211.69232096 -34.47602588 200.19581426 -34.50244141 188.69921875 C-34.52549255 178.67298153 -34.55896952 168.64684113 -34.60470742 158.62068081 C-34.62854398 153.31718471 -34.64733524 148.01378394 -34.65361977 142.7102356 C-34.65971417 137.70662484 -34.67986926 132.7032577 -34.71028137 127.69973755 C-34.71899236 125.87461038 -34.72279879 124.04945128 -34.72101402 122.2243042 C-34.70661411 100.6816577 -37.7834251 80.42932657 -52.15600586 63.4609375 C-52.77217773 62.73261719 -53.38834961 62.00429687 -54.02319336 61.25390625 C-65.96263748 48.29886626 -82.80401779 43.6586876 -99.82397461 42.23828125 C-119.33033255 41.55954262 -138.01905344 48.17359322 -152.84741211 60.7421875 C-167.48794176 74.51099096 -176.5549228 95.13543969 -177.29467106 115.22710323 C-177.30607682 116.60603653 -177.31230652 117.98501928 -177.31422424 119.36399841 C-177.31916222 120.12952013 -177.3241002 120.89504184 -177.32918781 121.68376118 C-177.34446747 124.23245007 -177.35289739 126.78111395 -177.36132812 129.32983398 C-177.37091416 131.16335772 -177.38092466 132.99687927 -177.3913269 134.83039856 C-177.41830347 139.79675384 -177.43935218 144.76311855 -177.45932889 149.72950625 C-177.48123326 154.92385996 -177.50860014 160.11818484 -177.53538513 165.31251526 C-177.5852519 175.14373886 -177.63021301 184.97497853 -177.6734075 194.80623347 C-177.72283134 206.00088142 -177.77773035 217.19550044 -177.83308709 228.39012039 C-177.94681477 251.41370039 -178.05295108 274.43730708 -178.15600586 297.4609375 C-202.90600586 297.4609375 -227.65600586 297.4609375 -253.15600586 297.4609375 C-253.15600586 192.1909375 -253.15600586 86.9209375 -253.15600586 -21.5390625 C-228.73600586 -21.5390625 -204.31600586 -21.5390625 -179.15600586 -21.5390625 C-178.82600586 -8.9990625 -178.49600586 3.5409375 -178.15600586 16.4609375 C-174.52600586 12.1709375 -170.89600586 7.8809375 -167.15600586 3.4609375 C-123.06963901 -37.5082115 -45.88518372 -39.18133335 0 0 Z " fill="#0051FF" transform="translate(1137.156005859375,154.5390625)"/>
<path d="M0 0 C1.24136719 1.15048828 1.24136719 1.15048828 2.5078125 2.32421875 C3.41789062 3.14277344 4.32796875 3.96132812 5.265625 4.8046875 C21.86507611 20.45625909 33.11494488 42.72916417 36.5078125 65.32421875 C36.5078125 67.63421875 36.5078125 69.94421875 36.5078125 72.32421875 C12.7478125 72.32421875 -11.0121875 72.32421875 -35.4921875 72.32421875 C-37.9671875 65.88921875 -37.9671875 65.88921875 -40.4921875 59.32421875 C-42.77882869 55.97894738 -44.77784263 53.22779899 -47.4921875 50.32421875 C-48.24048828 49.51404297 -48.24048828 49.51404297 -49.00390625 48.6875 C-63.74291364 34.54250802 -85.31358199 32.90440257 -104.59765625 33.10546875 C-120.02747631 33.50193113 -135.59355545 36.81326158 -146.98828125 47.76171875 C-152.28862186 53.54962779 -154.0968554 60.0874743 -153.84765625 67.80078125 C-152.94465022 74.21113177 -149.8474161 79.61466647 -145.4921875 84.32421875 C-143.11411369 85.85542455 -140.88195148 87.13933582 -138.3671875 88.38671875 C-137.47580078 88.87495117 -137.47580078 88.87495117 -136.56640625 89.37304688 C-120.21972224 97.6116451 -99.37498992 98.26600153 -81.5546875 100.82421875 C2.86122981 112.95453198 2.86122981 112.95453198 28.63671875 147.1484375 C42.86069707 168.68409366 47.14411499 195.46916627 42.43188477 220.76342773 C36.90670651 245.58375937 22.66155147 265.28595148 1.40234375 279.13964844 C-39.03692686 304.42461506 -94.35853517 306.50926068 -139.8125 296.44921875 C-170.94413922 289.15413574 -201.16419549 273.56844427 -218.73828125 245.8828125 C-220.82217483 242.44055048 -222.67662949 238.9153445 -224.4921875 235.32421875 C-225.03617188 234.24914062 -225.58015625 233.1740625 -226.140625 232.06640625 C-231.53989435 220.47305124 -235.4921875 207.14641097 -235.4921875 194.32421875 C-211.0721875 194.32421875 -186.6521875 194.32421875 -161.4921875 194.32421875 C-160.5021875 197.95421875 -159.5121875 201.58421875 -158.4921875 205.32421875 C-153.99445674 216.56854564 -145.31581034 225.04156751 -134.4921875 230.32421875 C-109.20119527 240.8814678 -78.14835554 242.33896925 -52.2421875 232.88671875 C-43.34079364 229.11645418 -35.63113651 223.7318149 -31.5546875 214.63671875 C-29.29558735 207.46407579 -29.31135467 199.26322612 -32.2421875 192.32421875 C-37.59467541 182.19140543 -46.02942329 177.77093806 -56.6953125 174.32592773 C-63.95680995 172.41016616 -71.37885541 171.40256581 -78.80227661 170.3168335 C-81.79546675 169.87892389 -84.78639193 169.42767986 -87.77709961 168.97314453 C-94.52076039 167.95086966 -101.26737143 166.94890967 -108.01470947 165.95123291 C-175.82683525 155.92313329 -175.82683525 155.92313329 -200.4921875 133.32421875 C-201.24628906 132.66164063 -202.00039062 131.9990625 -202.77734375 131.31640625 C-218.03434904 117.13236359 -226.17084798 96.85414149 -226.92578125 76.17578125 C-226.94876076 73.76703634 -226.94970007 71.35799014 -226.9296875 68.94921875 C-226.92356445 67.68424561 -226.91744141 66.41927246 -226.91113281 65.1159668 C-226.75227952 55.59759988 -225.69420161 47.29872196 -222.4921875 38.32421875 C-222.19183594 37.40382813 -221.89148437 36.4834375 -221.58203125 35.53515625 C-216.70317435 21.8912534 -206.86125772 9.1856831 -195.4921875 0.32421875 C-194.51894531 -0.44664062 -193.54570313 -1.2175 -192.54296875 -2.01171875 C-142.52043924 -40.34318755 -48.53195347 -42.52111519 0 0 Z " fill="#0051FF" transform="translate(2164.4921875,156.67578125)"/>
<path d="M0 0 C23.57663895 21.95976184 40.16135877 51.74543391 46.28369141 83.45214844 C46.28369141 84.77214844 46.28369141 86.09214844 46.28369141 87.45214844 C20.21369141 87.45214844 -5.85630859 87.45214844 -32.71630859 87.45214844 C-35.02630859 82.50214844 -37.33630859 77.55214844 -39.71630859 72.45214844 C-44.29354914 64.56912305 -49.33012666 57.94675451 -55.71630859 51.45214844 C-56.40337891 50.7521875 -57.09044922 50.05222656 -57.79833984 49.33105469 C-73.37297368 34.50770189 -95.39380936 27.79530704 -116.63427734 28.26855469 C-140.43344581 29.68624913 -162.68835973 38.33582444 -179.11865234 55.95605469 C-198.22629857 77.61138708 -204.2602917 106.26657925 -202.71630859 134.45214844 C-200.85155177 157.9337401 -191.32641026 178.78366328 -174.71630859 195.45214844 C-174.05501953 196.13664063 -173.39373047 196.82113281 -172.71240234 197.52636719 C-157.01080879 212.69166343 -135.10669405 219.10208812 -113.71630859 219.70214844 C-89.31217337 219.01641241 -69.64479146 210.58306458 -52.71630859 193.45214844 C-52.04986328 192.79601562 -51.38341797 192.13988281 -50.69677734 191.46386719 C-43.2701043 183.63484616 -38.06942386 173.31071193 -34.40771484 163.24511719 C-33.71630859 161.45214844 -33.71630859 161.45214844 -32.71630859 160.45214844 C-30.28234841 160.35716198 -27.87687907 160.32656427 -25.44262695 160.33862305 C-24.68170242 160.33847702 -23.92077789 160.33833099 -23.13679504 160.33818054 C-20.60988561 160.33887982 -18.08304897 160.34667289 -15.55615234 160.35449219 C-13.8088027 160.35635631 -12.06145253 160.35778024 -10.31410217 160.35877991 C-5.70598925 160.36260551 -1.09790764 160.37243615 3.51019287 160.38348389 C8.20877661 160.3936971 12.9073654 160.39827733 17.60595703 160.40332031 C26.83188228 160.41405838 36.05778424 160.43113531 45.28369141 160.45214844 C44.64886589 166.85596102 43.60373237 172.73150595 41.72119141 178.88964844 C41.45725586 179.75364258 41.19332031 180.61763672 40.92138672 181.5078125 C33.32277638 205.56861449 20.37236609 225.05136345 3.28369141 243.45214844 C2.73326172 244.05671875 2.18283203 244.66128906 1.61572266 245.28417969 C-26.17723975 274.58688326 -69.08426603 288.33194394 -108.48974609 289.63574219 C-155.17272924 290.6042888 -199.04676396 274.44350069 -232.94287109 242.22558594 C-237.25779852 237.91065852 -241.04329719 233.31921302 -244.71630859 228.45214844 C-245.1155957 227.92782227 -245.51488281 227.40349609 -245.92626953 226.86328125 C-260.52992349 207.56274562 -270.55470576 186.16559912 -275.71630859 162.45214844 C-276.01408203 161.1953125 -276.31185547 159.93847656 -276.61865234 158.64355469 C-281.32954876 136.31100259 -281.29110314 108.60226796 -275.71630859 86.45214844 C-275.51231445 85.61522461 -275.30832031 84.77830078 -275.09814453 83.91601562 C-272.10284692 71.90430542 -268.18004651 60.55838509 -262.71630859 49.45214844 C-262.40967285 48.82115234 -262.10303711 48.19015625 -261.78710938 47.54003906 C-249.30015476 22.13889343 -230.26287182 1.0226473 -206.71630859 -14.54785156 C-206.13010742 -14.93714844 -205.54390625 -15.32644531 -204.93994141 -15.72753906 C-183.84602489 -29.53530868 -159.58652021 -37.2547603 -134.71630859 -40.54785156 C-133.78302734 -40.67933594 -132.84974609 -40.81082031 -131.88818359 -40.94628906 C-84.49543993 -46.46053911 -35.4552474 -31.97528713 0 0 Z " fill="#0051FF" transform="translate(278.71630859375,168.5478515625)"/>
<path d="M0 0 C39.93 0 79.86 0 121 0 C121 105.27 121 210.54 121 319 C96.58 319 72.16 319 47 319 C47 235.84 47 152.68 47 67 C31.49 67 15.98 67 0 67 C0 44.89 0 22.78 0 0 Z " fill="#0051FF" transform="translate(703,133)"/>
<path d="M0 0 C1.32825806 0.00845947 1.32825806 0.00845947 2.68334961 0.01708984 C8.93168714 0.13342906 14.39967708 0.64068264 20.125 3.3125 C21.04539062 3.73789063 21.96578125 4.16328125 22.9140625 4.6015625 C34.30722193 10.3442062 41.24457614 18.70549913 45.9375 30.5625 C50.21786384 44.07943845 48.6840674 57.55702894 43.0625 70.375 C36.68550388 82.26111704 25.98053483 89.12730541 13.4296875 93.18359375 C-0.39811148 96.40711602 -15.08953274 94.31703971 -27.3046875 87.10546875 C-37.84299566 79.7542781 -44.94930162 69.08809385 -47.4375 56.45703125 C-49.47750023 41.79452962 -46.79144342 28.68876639 -38.0078125 16.78125 C-28.15760922 4.80224821 -15.1562836 -0.10085938 0 0 Z " fill="#0051FF" transform="translate(786.875,2.6875)"/>
</svg>
